<svg width="24" height="23" viewBox="0 0 24 23" fill="none" xmlns="http://www.w3.org/2000/svg">
<g clip-path="url(#clip0_12_539)">
<path d="M0.00726315 11.2032C0.0435711 11.1211 0.0726159 11.0458 0.116186 10.9636C0.326772 10.5393 0.682591 10.2928 1.18364 10.2381C1.29983 10.2244 1.41601 10.2312 1.5322 10.2312C6.69519 10.2312 11.8509 10.2312 17.0139 10.2312C17.1084 10.2312 17.2027 10.2312 17.3479 10.2312C17.2608 10.1422 17.2099 10.0875 17.1519 10.0327C15.5616 8.53369 13.9713 7.03466 12.3883 5.52877C11.8872 5.05647 11.7347 4.43358 12.1196 3.95444C12.4682 3.51636 12.9039 3.11251 13.3686 2.77711C13.8116 2.45541 14.4361 2.54439 14.8645 2.88663C14.9226 2.93454 14.9807 2.98247 15.0387 3.03722C17.8635 5.69989 20.6955 8.36257 23.5203 11.0321C24.0358 11.5181 24.1448 12.1067 23.8035 12.6338C23.7309 12.7502 23.6292 12.8597 23.5203 12.9555C20.6955 15.6182 17.8635 18.2877 15.0387 20.9505C14.3997 21.5528 13.6373 21.5528 12.9983 20.9572C12.7949 20.7656 12.5916 20.574 12.381 20.3822C11.7638 19.7935 11.7565 19.0818 12.381 18.4931C13.9858 16.9872 15.5907 15.4813 17.1882 13.9755C17.2463 13.9206 17.3045 13.859 17.3988 13.77C17.2608 13.77 17.1736 13.77 17.0793 13.77C11.9526 13.77 6.81864 13.77 1.69195 13.77C0.653545 13.77 0.384864 13.5989 0 12.7091C0.00726161 12.2026 0.00726315 11.7029 0.00726315 11.2032Z" fill="white"/>
</g>
<defs>
<clipPath id="clip0_12_539">
<rect width="24" height="23" fill="white"/>
</clipPath>
</defs>
</svg>
